<svg width="78" height="78" viewBox="0 0 78 78" fill="none" xmlns="http://www.w3.org/2000/svg">
<g filter="url(#filter0_d_1227_11339)">
<circle cx="39" cy="35" r="29" fill="#EF8354"/>
<path d="M48.3125 32.0578H41.2812V24.6469C41.2812 23.7375 40.5815 23 39.7188 23H38.1562C37.2935 23 36.5938 23.7375 36.5938 24.6469V32.0578H29.5625C28.6997 32.0578 28 32.7953 28 33.7047V35.3516C28 36.261 28.6997 36.9985 29.5625 36.9985H36.5938V44.4094C36.5938 45.3188 37.2935 46.0563 38.1562 46.0563H39.7188C40.5815 46.0563 41.2812 45.3188 41.2812 44.4094V36.9985H48.3125C49.1753 36.9985 49.875 36.261 49.875 35.3516V33.7047C49.875 32.7953 49.1753 32.0578 48.3125 32.0578Z" fill="white"/>
</g>
<defs>
<filter id="filter0_d_1227_11339" x="0" y="0" width="78" height="78" filterUnits="userSpaceOnUse" color-interpolation-filters="sRGB">
<feFlood flood-opacity="0" result="BackgroundImageFix"/>
<feColorMatrix in="SourceAlpha" type="matrix" values="0 0 0 0 0 0 0 0 0 0 0 0 0 0 0 0 0 0 127 0" result="hardAlpha"/>
<feOffset dy="4"/>
<feGaussianBlur stdDeviation="5"/>
<feComposite in2="hardAlpha" operator="out"/>
<feColorMatrix type="matrix" values="0 0 0 0 0 0 0 0 0 0 0 0 0 0 0 0 0 0 0.1 0"/>
<feBlend mode="normal" in2="BackgroundImageFix" result="effect1_dropShadow_1227_11339"/>
<feBlend mode="normal" in="SourceGraphic" in2="effect1_dropShadow_1227_11339" result="shape"/>
</filter>
</defs>
</svg>
